<svg width="512" height="512" viewBox="0 0 512 512" fill="none" xmlns="http://www.w3.org/2000/svg">
<path d="M227.552 12.7056L46.5519 116.706C27.7517 127.508 27.7184 148.54 30.0519 157.706C31.04 183.398 32.1956 220.778 32.7742 256.706H480.875C480.599 212.057 480.903 171.311 482.552 157.706C485.752 131.306 472.885 119.372 466.052 116.706C418.052 90.8723 315.252 33.9056 288.052 12.7056C260.852 -8.49438 236.385 3.87228 227.552 12.7056Z" fill="#F5F5F5"/>
<path d="M227.604 500.206L46.6041 396.206C27.8039 385.404 27.7707 364.372 30.1041 355.206C31.0923 329.514 32.2478 292.134 32.8264 256.206H480.927C480.652 300.855 480.955 341.601 482.604 355.206C485.804 381.606 472.937 393.54 466.104 396.206C418.104 422.04 315.304 479.006 288.104 500.206C260.904 521.406 236.437 509.04 227.604 500.206Z" fill="#FF4B55"/>
</svg>
